# xmcd
#
# Track frame offsets: 
#        150
#        14910
#        32500
#        63932
#        79880
#        99975
#        123397
#        143158
#        157423
#        171113
#        199445
#        235790
#
# Disc length: 3247 seconds
#
# Revision: 0
# Processed by: cddbd v1.4PL0 Copyright (c) Steve Scherf et al.
# Submitted via: ExactAudioCopy v0.90a11
#
DISCID=a60cad0c
DTITLE=Buddy Guy - Slippin' In
DYEAR=1900
DGENRE=
TTITLE0=A Smell Trouble
TTITLE1=Please Don't Drive Me Away
TTITLE2=7-11
TTITLE3=Shame, Shame, Shame
TTITLE4=Love Her With A Feeling
TTITLE5=Little Dab-A-Doo
TTITLE6=Someone Else Is Steppin' In (Slippin' Out, Slippin' In)
TTITLE7=Trouble Blues
TTITLE8=Man Of Many Words
TTITLE9=Don't Tell Me About The Blues
TTITLE10=Cities Need Help
TTITLE11=Multimedia Track
EXTD=
EXTT0=
EXTT1=
EXTT2=
EXTT3=
EXTT4=
EXTT5=
EXTT6=
EXTT7=
EXTT8=
EXTT9=
EXTT10=
EXTT11=
PLAYORDER=
